<svg width="833" height="793" viewBox="0 0 833 793" fill="none" xmlns="http://www.w3.org/2000/svg">
<path d="M462.735 233.199H369.329V256.511H462.735V233.199Z" fill="#CC6F2D"/>
<path d="M509.321 256.589H462.657V279.901H509.321V256.589Z" fill="#CC6F2D"/>
<path d="M532.73 279.901H509.398V303.213H532.73V279.901Z" fill="#CC6F2D"/>
<path d="M556.062 303.213H532.73V349.837H556.062V303.213Z" fill="#CC6F2D"/>
<path d="M579.395 349.837H556.063V443.163H579.395V349.837Z" fill="#CC6F2D"/>
<path d="M556.062 443.163H532.73V489.787H556.062V443.163Z" fill="#CC6F2D"/>
<path d="M532.73 489.787H509.398V513.099H532.73V489.787Z" fill="#CC6F2D"/>
<path d="M299.308 513.114H322.64V489.802H299.308V513.114Z" fill="#CC6F2D"/>
<path d="M275.954 489.769H299.286V443.144H275.954V489.769Z" fill="#CC6F2D"/>
<path d="M252.6 443.154H275.932V349.828H252.6V443.154Z" fill="#CC6F2D"/>
<path d="M275.954 349.839H299.286V303.215H275.954V349.839Z" fill="#CC6F2D"/>
<path d="M299.308 303.181H322.64V279.869H299.308V303.181Z" fill="#CC6F2D"/>
<path d="M322.672 279.847H369.336V256.535H322.672V279.847Z" fill="#CC6F2D"/>
<path d="M322.588 513.099H299.256V536.411H322.588V513.099Z" fill="#CC6F2D"/>
<path d="M345.92 536.412H322.589V559.724H345.92V536.412Z" fill="#CC6F2D"/>
<path d="M369.33 559.724H345.998V583.036H369.33V559.724Z" fill="#CC6F2D"/>
<path d="M369.33 583.114H345.998V606.426H369.33V583.114Z" fill="#CC6F2D"/>
<path d="M392.661 606.426H369.329V629.738H392.661V606.426Z" fill="#CC6F2D"/>
<path d="M532.73 513.099H509.398V536.411H532.73V513.099Z" fill="#CC6F2D"/>
<path d="M509.32 536.412H485.988V559.724H509.32V536.412Z" fill="#CC6F2D"/>
<path d="M485.989 559.724H462.657V606.348H485.989V559.724Z" fill="#CC6F2D"/>
<path d="M462.657 606.426H439.325V629.738H462.657V606.426Z" fill="#CC6F2D"/>
<path d="M462.735 653.05H369.329V676.362H462.735V653.05Z" fill="#BFBFBF"/>
<path d="M462.735 699.674H369.329V722.986H462.735V699.674Z" fill="#BFBFBF"/>
<path d="M462.735 746.376H369.329V769.688H462.735V746.376Z" fill="#BFBFBF"/>
<path d="M485.989 653.05H462.657V699.674H485.989V653.05Z" fill="#BFBFBF"/>
<path d="M369.33 676.362H345.998V699.674H369.33V676.362Z" fill="#BFBFBF"/>
<path d="M485.989 722.986H462.657V746.298H485.989V722.986Z" fill="#BFBFBF"/>
<path d="M462.657 653.05H485.989V629.738H462.657H369.33H345.998V676.362H369.33V653.05H462.657Z" fill="#141414"/>
<path d="M462.736 676.362H369.331V699.674H462.736V676.362Z" fill="#141414"/>
<path d="M439.325 769.688H392.662V793H439.325V769.688Z" fill="#141414"/>
<path d="M369.33 699.674H345.998V746.376H369.33H462.657V722.986H369.33V699.674Z" fill="#141414"/>
<path d="M485.989 699.674H462.657V722.986H485.989V699.674Z" fill="#141414"/>
<path d="M532.731 349.837V373.149H509.399V396.461H485.989V443.163H439.326V489.787H369.33V513.099H345.999H322.589V536.411H345.999V559.724H369.33V606.426H392.662V629.738H439.326V606.426H462.658V559.724H485.989V536.411H509.399V489.787H532.731V443.163H556.063V396.461V373.149V349.837H532.731Z" fill="#EB9E23"/>
<path d="M439.404 303.213H345.998V373.149H439.404V303.213Z" fill="#FCF7C2"/>
<path d="M509.398 279.901H462.735V256.589H439.325H369.329V279.901H322.666V303.213H299.334V349.837H276.002V373.149V396.461V419.773V443.085H299.334V466.397V489.71H322.666V513.022H369.329V489.71H439.325V443.085H485.988V396.461H509.32V373.149H532.652V349.837V326.525V303.213H509.32V279.901H509.398ZM369.329 303.213H439.325V373.149H345.997V303.213H369.329Z" fill="#FCE829"/>
<path d="M427.619 0H404.287V209.887H427.619V0Z" fill="#FCE829"/>
<path d="M704.089 92.3529L555.553 240.764L572.051 257.248L720.587 108.837L704.089 92.3529Z" fill="#FCE829"/>
<path d="M832.999 355.139H622.935V378.451H832.999V355.139Z" fill="#FCE829"/>
<path d="M612.022 478.829L595.524 495.313L744.06 643.724L760.558 627.24L612.022 478.829Z" fill="#FCE829"/>
<path d="M128.885 94.8515L112.387 111.335L260.924 259.746L277.422 243.262L128.885 94.8515Z" fill="#FCE829"/>
<path d="M210.064 357.634H0V380.946H210.064V357.634Z" fill="#FCE829"/>
<path d="M220.996 481.36L72.4594 629.771L88.9573 646.254L237.494 497.844L220.996 481.36Z" fill="#FCE829"/>
</svg>
