<svg width="28" height="28" viewBox="0 0 28 28" fill="none" xmlns="http://www.w3.org/2000/svg">
<path fill-rule="evenodd" clip-rule="evenodd" d="M6.00033 0.666504C4.58584 0.666504 3.22928 1.22841 2.22909 2.2286C1.2289 3.2288 0.666992 4.58535 0.666992 5.99984V21.9998C0.666992 23.4143 1.2289 24.7709 2.22909 25.7711C3.22928 26.7713 4.58584 27.3332 6.00033 27.3332H22.0003C23.4148 27.3332 24.7714 26.7713 25.7716 25.7711C26.7718 24.7709 27.3337 23.4143 27.3337 21.9998V5.99984C27.3337 4.58535 26.7718 3.2288 25.7716 2.2286C24.7714 1.22841 23.4148 0.666504 22.0003 0.666504H6.00033ZM3.33366 5.99984C3.33366 5.29259 3.61461 4.61432 4.11471 4.11422C4.6148 3.61412 5.29308 3.33317 6.00033 3.33317H22.0003C22.7076 3.33317 23.3858 3.61412 23.8859 4.11422C24.386 4.61432 24.667 5.29259 24.667 5.99984V21.9998C24.667 22.7071 24.386 23.3854 23.8859 23.8855C23.3858 24.3856 22.7076 24.6665 22.0003 24.6665H6.00033C5.29308 24.6665 4.6148 24.3856 4.11471 23.8855C3.61461 23.3854 3.33366 22.7071 3.33366 21.9998V5.99984ZM10.0003 12.6665C10.0003 12.3129 9.85985 11.9737 9.6098 11.7237C9.35975 11.4736 9.02061 11.3332 8.66699 11.3332C8.31337 11.3332 7.97423 11.4736 7.72418 11.7237C7.47413 11.9737 7.33366 12.3129 7.33366 12.6665V20.6665C7.33366 21.0201 7.47413 21.3593 7.72418 21.6093C7.97423 21.8594 8.31337 21.9998 8.66699 21.9998C9.02061 21.9998 9.35975 21.8594 9.6098 21.6093C9.85985 21.3593 10.0003 21.0201 10.0003 20.6665V12.6665ZM10.667 7.99984C10.667 8.53027 10.4563 9.03898 10.0812 9.41405C9.70613 9.78912 9.19742 9.99984 8.66699 9.99984C8.13656 9.99984 7.62785 9.78912 7.25278 9.41405C6.87771 9.03898 6.66699 8.53027 6.66699 7.99984C6.66699 7.4694 6.87771 6.9607 7.25278 6.58562C7.62785 6.21055 8.13656 5.99984 8.66699 5.99984C9.19742 5.99984 9.70613 6.21055 10.0812 6.58562C10.4563 6.9607 10.667 7.4694 10.667 7.99984ZM14.0003 11.3332C14.4537 11.3332 14.8537 11.5598 15.0937 11.9038C15.7809 11.5293 16.551 11.3331 17.3337 11.3332C20.2137 11.3332 22.0003 13.9012 22.0003 16.0945V20.6665C22.0003 21.0201 21.8598 21.3593 21.6098 21.6093C21.3598 21.8594 21.0206 21.9998 20.667 21.9998C20.3134 21.9998 19.9742 21.8594 19.7242 21.6093C19.4741 21.3593 19.3337 21.0201 19.3337 20.6665V16.0932C19.3337 15.0692 18.4537 13.9985 17.3337 13.9985C16.635 13.9985 15.863 14.3785 15.3337 15.2825V20.6665C15.3337 21.0201 15.1932 21.3593 14.9431 21.6093C14.6931 21.8594 14.3539 21.9998 14.0003 21.9998C13.6467 21.9998 13.3076 21.8594 13.0575 21.6093C12.8075 21.3593 12.667 21.0201 12.667 20.6665V12.6665C12.667 12.3129 12.8075 11.9737 13.0575 11.7237C13.3076 11.4736 13.6467 11.3332 14.0003 11.3332Z" fill="#C4B6B6"/>
</svg>
