<svg width="32" height="32" viewBox="0 0 32 32" fill="none" xmlns="http://www.w3.org/2000/svg">
<path fill-rule="evenodd" clip-rule="evenodd" d="M15.3332 11.3335C15.3332 12.5282 14.8838 13.6188 14.1452 14.4442C15.182 15.1816 15.9575 16.2296 16.3597 17.4366C16.762 18.6437 16.7701 19.9474 16.3829 21.1593C15.9957 22.3713 15.2333 23.4288 14.2058 24.1791C13.1783 24.9295 11.9388 25.3337 10.6665 25.3335H4.6665C4.13607 25.3335 3.62736 25.1228 3.25229 24.7477C2.87722 24.3726 2.6665 23.8639 2.6665 23.3335V7.3335C2.6665 6.80306 2.87722 6.29436 3.25229 5.91928C3.62736 5.54421 4.13607 5.3335 4.6665 5.3335H9.99984C11.4143 5.3335 12.7709 5.8954 13.7711 6.89559C14.7713 7.89579 15.3332 9.25234 15.3332 10.6668V11.3335ZM5.33317 13.3335V8.00016H9.99984C10.7071 8.00016 11.3854 8.28111 11.8855 8.78121C12.3856 9.28131 12.6665 9.95959 12.6665 10.6668V11.3335C12.6665 11.8639 12.4558 12.3726 12.0807 12.7477C11.7056 13.1228 11.1969 13.3335 10.6665 13.3335H5.33317ZM5.33317 16.0002H10.6665C11.5506 16.0002 12.3984 16.3514 13.0235 16.9765C13.6486 17.6016 13.9998 18.4494 13.9998 19.3335C13.9998 20.2176 13.6486 21.0654 13.0235 21.6905C12.3984 22.3156 11.5506 22.6668 10.6665 22.6668H5.33317V16.0002Z" fill="#C4B6B6"/>
<path d="M20 7.99984C20 7.64622 20.1405 7.30708 20.3905 7.05703C20.6406 6.80698 20.9797 6.6665 21.3333 6.6665H26C26.3536 6.6665 26.6928 6.80698 26.9428 7.05703C27.1929 7.30708 27.3333 7.64622 27.3333 7.99984C27.3333 8.35346 27.1929 8.6926 26.9428 8.94265C26.6928 9.19269 26.3536 9.33317 26 9.33317H21.3333C20.9797 9.33317 20.6406 9.19269 20.3905 8.94265C20.1405 8.6926 20 8.35346 20 7.99984Z" fill="#C4B6B6"/>
<path fill-rule="evenodd" clip-rule="evenodd" d="M23.6665 10.6665C19.8785 10.6665 16.6665 13.5758 16.6665 17.3332V18.6665C16.6665 22.4238 19.8785 25.3332 23.6665 25.3332C25.6865 25.3332 27.1492 24.7518 28.1292 24.1198C28.7185 23.7412 29.1812 23.2798 29.6265 22.7492C29.8203 22.4582 29.892 22.1027 29.8262 21.7593C29.7604 21.416 29.5624 21.1122 29.2748 20.9134C28.9872 20.7146 28.633 20.6367 28.2886 20.6965C27.9441 20.7564 27.6369 20.9491 27.4332 21.2332C27.2216 21.488 26.9693 21.706 26.6865 21.8785C26.1118 22.2478 25.1452 22.6665 23.6665 22.6665C21.1958 22.6665 19.3332 20.7998 19.3332 18.6665H29.3332C29.6868 18.6665 30.0259 18.526 30.276 18.276C30.526 18.0259 30.6665 17.6868 30.6665 17.3332C30.6665 13.5758 27.4545 10.6665 23.6665 10.6665ZM27.7505 15.9998C27.1638 14.4785 25.6012 13.3332 23.6665 13.3332C21.7318 13.3332 20.1692 14.4785 19.5825 15.9998H27.7505Z" fill="#C4B6B6"/>
</svg>
