<svg width="28" height="28" viewBox="0 0 28 28" fill="none" xmlns="http://www.w3.org/2000/svg">
<path fill-rule="evenodd" clip-rule="evenodd" d="M0.666992 5.99984C0.666992 4.58535 1.2289 3.2288 2.22909 2.2286C3.22928 1.22841 4.58584 0.666504 6.00033 0.666504H22.0003C23.4148 0.666504 24.7714 1.22841 25.7716 2.2286C26.7718 3.2288 27.3337 4.58535 27.3337 5.99984V21.9998C27.3337 23.4143 26.7718 24.7709 25.7716 25.7711C24.7714 26.7713 23.4148 27.3332 22.0003 27.3332H6.00033C4.58584 27.3332 3.22928 26.7713 2.22909 25.7711C1.2289 24.7709 0.666992 23.4143 0.666992 21.9998V5.99984ZM6.00033 3.33317C5.29308 3.33317 4.6148 3.61412 4.11471 4.11422C3.61461 4.61432 3.33366 5.29259 3.33366 5.99984V21.9998C3.33366 22.7071 3.61461 23.3854 4.11471 23.8855C4.6148 24.3856 5.29308 24.6665 6.00033 24.6665H14.0003V15.3332H12.667C12.3134 15.3332 11.9742 15.1927 11.7242 14.9426C11.4741 14.6926 11.3337 14.3535 11.3337 13.9998C11.3337 13.6462 11.4741 13.3071 11.7242 13.057C11.9742 12.807 12.3134 12.6665 12.667 12.6665H14.0003V10.6665C14.0003 9.42883 14.492 8.24184 15.3672 7.36667C16.2423 6.4915 17.4293 5.99984 18.667 5.99984H19.467C19.8206 5.99984 20.1597 6.14031 20.4098 6.39036C20.6598 6.64041 20.8003 6.97955 20.8003 7.33317C20.8003 7.68679 20.6598 8.02593 20.4098 8.27598C20.1597 8.52603 19.8206 8.6665 19.467 8.6665H18.667C18.4043 8.6665 18.1443 8.71824 17.9016 8.81874C17.659 8.91925 17.4385 9.06657 17.2528 9.25229C17.0671 9.43801 16.9197 9.65849 16.8192 9.90114C16.7187 10.1438 16.667 10.4039 16.667 10.6665V12.6665H19.467C19.8206 12.6665 20.1597 12.807 20.4098 13.057C20.6598 13.3071 20.8003 13.6462 20.8003 13.9998C20.8003 14.3535 20.6598 14.6926 20.4098 14.9426C20.1597 15.1927 19.8206 15.3332 19.467 15.3332H16.667V24.6665H22.0003C22.7076 24.6665 23.3858 24.3856 23.8859 23.8855C24.386 23.3854 24.667 22.7071 24.667 21.9998V5.99984C24.667 5.29259 24.386 4.61432 23.8859 4.11422C23.3858 3.61412 22.7076 3.33317 22.0003 3.33317H6.00033Z" fill="black"/>
</svg>
