<svg width="28" height="29" viewBox="0 0 28 29" fill="none" xmlns="http://www.w3.org/2000/svg">
<path fill-rule="evenodd" clip-rule="evenodd" d="M7.66449 3.4265C9.24049 1.5545 11.4725 0.666504 14.0005 0.666504C16.5872 0.666504 18.8058 1.71184 20.3525 3.61717C21.7258 5.3105 22.5032 7.59584 22.6445 10.2532L22.7672 10.2718L22.7938 10.2758C23.0205 10.3078 23.2912 10.3478 23.5725 10.4025C24.6138 10.6038 26.3912 11.1132 27.0032 13.0212C27.3098 13.9798 27.1565 14.8678 26.6192 15.5718C26.1565 16.1785 25.4952 16.5292 25.0218 16.7412C24.7872 16.8478 24.5525 16.9385 24.3552 17.0145C24.8165 18.2625 25.6192 19.5465 26.5072 20.7092C27.3432 21.8052 27.1218 23.1932 26.6898 24.0985C26.2565 25.0052 25.3205 26.0412 23.9578 26.0998C23.1872 26.1332 22.3778 26.2132 21.5725 26.3598C21.2085 26.4265 20.7792 26.5718 20.2458 26.7918C19.9272 26.9225 19.6352 27.0532 19.3205 27.1932C19.0698 27.3052 18.8058 27.4225 18.5005 27.5532C17.2472 28.0918 15.7072 28.6665 14.0005 28.6665C12.2938 28.6665 10.7538 28.0918 9.50049 27.5532C9.19515 27.4225 8.92982 27.3052 8.68049 27.1932C8.37394 27.0551 8.06546 26.9213 7.75515 26.7918C7.22182 26.5718 6.79249 26.4252 6.42849 26.3585C5.62315 26.2118 4.81382 26.1332 4.04182 26.0998C2.68049 26.0412 1.74315 25.0052 1.31115 24.0985C0.879154 23.1932 0.657821 21.8052 1.49382 20.7092C2.38715 19.5385 3.19382 18.2452 3.65382 16.9892C3.45197 16.9098 3.25234 16.8249 3.05515 16.7345C2.59382 16.5185 1.96715 16.1732 1.50449 15.5945C0.988488 14.9465 0.760488 14.1105 0.963154 13.1532C1.39515 11.1038 3.32315 10.5932 4.34182 10.4012C4.63115 10.3478 4.91249 10.3078 5.14849 10.2745L5.19515 10.2678L5.35515 10.2452C5.48715 7.41184 6.25915 5.0945 7.66449 3.4265ZM9.70449 5.14384C8.68715 6.3505 8.00049 8.2905 8.00049 11.1438V11.2825L7.97115 11.4198C7.82315 12.1185 7.28582 12.4452 7.01915 12.5705C6.73915 12.7025 6.43649 12.7678 6.22315 12.8078C6.01515 12.8465 5.78315 12.8785 5.57649 12.9065L5.51515 12.9158C5.28723 12.946 5.06006 12.9816 4.83382 13.0225C3.81382 13.2132 3.62049 13.4665 3.57115 13.7025C3.53649 13.8718 3.56715 13.9065 3.58449 13.9252L3.58982 13.9305C3.66049 14.0198 3.83115 14.1532 4.18582 14.3185C4.35115 14.3958 4.52582 14.4665 4.71915 14.5452L4.76715 14.5638C4.93649 14.6305 5.13782 14.7118 5.31515 14.7958C5.48982 14.8758 5.78182 15.0225 6.02982 15.2598C6.31782 15.5358 6.66582 16.0745 6.49649 16.7852C6.01115 18.8265 4.78582 20.7918 3.61515 22.3252C3.59734 22.37 3.59004 22.4184 3.59382 22.4665C3.59382 22.5932 3.62982 22.7665 3.71649 22.9492C3.80449 23.1318 3.91649 23.2718 4.02049 23.3558C4.10582 23.4252 4.15382 23.4358 4.15915 23.4358C5.02715 23.4732 5.95915 23.5638 6.90582 23.7358C7.54982 23.8532 8.18582 24.0852 8.77249 24.3278C9.09649 24.4612 9.46849 24.6265 9.82982 24.7865C10.0818 24.8985 10.3285 25.0078 10.5498 25.1025C11.7485 25.6158 12.8672 25.9998 14.0005 25.9998C15.1338 25.9998 16.2538 25.6158 17.4512 25.1025C17.6725 25.0078 17.9192 24.8972 18.1712 24.7865C18.5312 24.6265 18.9045 24.4612 19.2272 24.3278C19.8138 24.0852 20.4498 23.8532 21.0938 23.7358C22.0405 23.5625 22.9738 23.4732 23.8405 23.4358C23.8485 23.4358 23.8952 23.4252 23.9805 23.3558C24.1094 23.2433 24.213 23.1047 24.2845 22.9492C24.3593 22.7989 24.4011 22.6343 24.4072 22.4665C24.4072 22.3425 24.3765 22.3132 24.3872 22.3278C23.2165 20.7945 21.9898 18.8278 21.5032 16.7852C21.3232 16.0252 21.7352 15.4785 22.0192 15.2252C22.2725 15.0012 22.5685 14.8612 22.7485 14.7825C22.9285 14.7025 23.1312 14.6265 23.3045 14.5612L23.3685 14.5358C23.5725 14.4598 23.7552 14.3892 23.9272 14.3105C24.2872 14.1492 24.4405 14.0252 24.4925 13.9625C24.4878 13.9194 24.4784 13.8769 24.4645 13.8358C24.3432 13.4572 24.0005 13.2012 23.0645 13.0198C22.8525 12.9798 22.6378 12.9478 22.4112 12.9132L22.3605 12.9065C22.1495 12.8779 21.9392 12.8441 21.7298 12.8052C21.4582 12.7576 21.1942 12.6742 20.9445 12.5572C20.6645 12.4185 20.1712 12.0865 20.0298 11.4198L20.0005 11.2825V11.1425C20.0005 8.5425 19.3245 6.5825 18.2818 5.2985C17.2618 4.03984 15.8152 3.33317 14.0005 3.33317C12.1272 3.33317 10.6938 3.96784 9.70315 5.14384H9.70449Z" fill="black"/>
</svg>
