<svg width="28" height="28" viewBox="0 0 28 28" fill="none" xmlns="http://www.w3.org/2000/svg">
<path fill-rule="evenodd" clip-rule="evenodd" d="M2.79467 12.2907C6.25067 12.5774 9.56 11.884 12.3 10.3174C10.9215 8.26978 9.30636 6.39192 7.488 4.72268C6.23517 5.60183 5.17341 6.72564 4.36678 8.02634C3.56015 9.32704 3.02535 10.7777 2.79467 12.2907ZM6.92533 1.91735C4.81662 3.15145 3.06778 4.91618 1.8528 7.03597C0.637813 9.15576 -0.000967791 11.5567 1.10056e-06 14C1.10056e-06 21.732 6.268 28 14 28C21.732 28 28 21.732 28 14C28 6.26802 21.732 1.82744e-05 14 1.82744e-05C11.5131 -0.00400858 9.07035 0.657539 6.92533 1.91602V1.91735ZM9.97333 3.40135C11.6545 5.03464 13.1638 6.83606 14.4773 8.77735C16.1401 7.34275 17.4303 5.52643 18.2373 3.48402C16.8905 2.94193 15.4518 2.66442 14 2.66668C12.6246 2.66515 11.2605 2.91457 9.97467 3.40268L9.97333 3.40135ZM20.588 4.77735C19.5677 7.22712 17.9588 9.38738 15.904 11.0667C16.368 11.8787 16.7987 12.7094 17.1947 13.556C19.7053 12.5787 22.4213 12.128 25.2147 12.3587C24.9939 10.8489 24.4704 9.39919 23.6756 8.09665C22.8808 6.79411 21.831 5.66555 20.5893 4.77869L20.588 4.77735ZM25.2853 15.0414C22.856 14.7934 20.4587 15.1614 18.2293 16.016C19.1509 18.4527 19.7615 20.9959 20.0467 23.5854C21.5164 22.6582 22.7531 21.4054 23.6613 19.9238C24.5694 18.4423 25.1246 16.7718 25.284 15.0414H25.2853ZM17.4773 24.788C17.2811 22.1827 16.7206 19.6177 15.812 17.168C12.988 18.7907 10.564 21.216 8.88 24.1133C10.4667 24.9179 12.221 25.3359 14 25.3334C15.2133 25.3334 16.3827 25.1427 17.4787 24.7894L17.4773 24.788ZM6.65733 22.6334C8.60933 19.3347 11.444 16.5374 14.78 14.688C14.446 13.9741 14.0858 13.2727 13.7 12.5854C10.4813 14.4414 6.63333 15.2574 2.70533 14.9574C2.9559 17.9379 4.37687 20.6979 6.65733 22.6334Z" fill="black"/>
</svg>
